<svg width="435" height="207" fill="none" xmlns="http://www.w3.org/2000/svg"><path d="M244.772 71.557c-99.002-8.272-179.78 38.719-209.474 60.781 66.88 46.206 129.412 62.599 190.941 69.614 61.529 7.015 138.361-30.927 204.317-62.533-32.843-23.141-97.979-60.526-185.784-67.862z" stroke="#000" stroke-width="7" stroke-linecap="round" stroke-linejoin="round"/><circle cx="232.927" cy="138.082" r="62.376" fill="#000" stroke="#000" stroke-width="7"/><path d="M233.408 95.414l29.429 12.19 12.19 29.43-12.19 29.429-29.429 12.19-29.43-12.19-12.19-29.429 12.19-29.43 29.43-12.19z" fill="#fff"/><path d="M260.348 167.417l37.118-19.73m-65.208 28.759l38.121 15.047m-67.213-24.076l17.054 32.102m-28.09-61.864l-14.044 38.791m25.08-67.883l-33.106 16.051m63.201-29.093L200.156 82.48m62.198 27.086l-18.058-35.112m29.093 62.198l13.042-33.105" stroke="#fff"/><path d="M51.946 119.869L4 71.923m95.892 19.978l-29.3-54.605m78.578 41.286l-15.982-62.595M207.77 70.59V4m55.937 67.923l17.314-66.591m33.295 75.248l27.969-55.937m14.65 73.917l31.964-35.96" stroke="#000" stroke-width="7" stroke-linecap="round" stroke-linejoin="round"/></svg>